<svg width="69" height="60" viewBox="0 0 69 60" fill="none" xmlns="http://www.w3.org/2000/svg">
<path d="M68.0717 17.5171V7.88766H46.9861V11.9377L40.2596 0H27.8405L21.0857 11.9802V7.88766H0V17.5171H4.24829C4.24829 17.5171 4.24829 29.2707 4.24829 36.2945H0.198253V45.7966H4.43238C4.84305 48.4305 6.03257 51.3052 9.27543 53.6984C14.4017 57.4793 20.5759 60 34.043 60C47.4959 60 53.67 57.4793 58.8105 53.6984C61.5152 51.7017 62.7755 48.4588 63.3561 45.7966H67.916V36.2945H63.8518V17.5171H68.0717ZM34.3545 14.6424L38.5461 22.0061H30.1062L34.3545 14.6424ZM34.043 49.1669C25.2915 49.1669 22.4168 47.949 19.3297 46.2355C19.0748 46.0939 18.8482 45.9523 18.6217 45.8107H27.7838V36.1813H22.2044L24.6826 31.7772H44.0548L46.5612 36.3087H40.2879V45.8107H49.4359C49.2235 45.9523 48.9969 46.0939 48.7279 46.2355C45.6549 47.949 42.7944 49.1669 34.043 49.1669ZM16.3701 17.5313H17.8428L16.3701 20.5051V17.5313ZM51.8291 17.5313V20.5051L50.3564 17.5313H51.8291" fill="#F26522"/>
<path d="M49.6768 47.9207C46.2073 49.8466 42.922 51.0928 34.0289 51.0928C25.15 51.0928 21.8646 49.8466 18.3811 47.9207C17.1774 47.2551 16.3277 46.5471 15.733 45.8107H6.38672C6.79739 47.9915 7.83114 50.2573 10.4226 52.169C15.3081 55.78 21.0433 58.0883 34.0431 58.0883C47.0428 58.0883 52.778 55.7659 57.6636 52.169C60.255 50.2573 61.2888 48.0057 61.6994 45.8107H52.339C51.7301 46.5471 50.8946 47.241 49.6768 47.9207Z" fill="#002B5C"/>
<path d="M53.6702 15.3505C53.6702 16.2143 53.6702 19.6696 53.6702 23.8046L60.7224 36.3087H61.9119C61.9119 29.0441 61.9119 15.6054 61.9119 15.6054H66.1602V9.81354H48.9121V15.3505H53.6702Z" fill="#002B5C"/>
<path d="M14.4016 23.8329C14.4016 19.6837 14.4016 16.2143 14.4016 15.3505H19.1597V9.81354H1.92578V15.6054H6.17407C6.17407 15.6054 6.17407 29.0441 6.17407 36.3087H7.37775L14.4016 23.8329Z" fill="#002B5C"/>
<path d="M39.1408 1.9259L59.6034 38.2346H65.9758V43.899H42.2279V38.2346H49.8323L45.2017 29.8655H23.5637L18.9331 38.093H25.872V43.8848H2.12402V38.2204H8.49646L28.959 1.9259H39.1408ZM26.7783 23.932H41.8455L34.3685 10.7765L26.7783 23.932Z" fill="#002B5C"/>
<path d="M62.4927 52.6788C62.4927 51.8999 63.0875 51.3193 63.838 51.3193C64.5744 51.3193 65.155 51.8999 65.155 52.6788C65.155 53.4718 64.5744 54.0382 63.838 54.0382C63.0875 54.0382 62.4927 53.4576 62.4927 52.6788ZM63.838 54.3073C64.7301 54.3073 65.4948 53.6134 65.4948 52.6646C65.4948 51.7158 64.7301 51.0361 63.838 51.0361C62.9317 51.0361 62.167 51.73 62.167 52.6646C62.167 53.6276 62.9317 54.3073 63.838 54.3073ZM63.484 52.8062H63.8097L64.3053 53.6276H64.631L64.0929 52.7921C64.3761 52.7637 64.5885 52.608 64.5885 52.2681C64.5885 51.8999 64.3619 51.73 63.923 51.73H63.2007V53.6134H63.484V52.8062ZM63.484 52.5655V51.9707H63.8805C64.0787 51.9707 64.2911 52.0132 64.2911 52.2539C64.2911 52.5513 64.0787 52.5655 63.838 52.5655H63.484Z" fill="#002B5C"/>
</svg>
